<?xml version="1.0" standalone="no"?>
<svg xmlns:xlink="http://www.w3.org/1999/xlink" id="wave" style="transform:rotate(0deg); transition: 0.3s" viewBox="0 0 1440 430" version="1.1" xmlns="http://www.w3.org/2000/svg"><defs><linearGradient id="sw-gradient-0" x1="0" x2="0" y1="1" y2="0"><stop stop-color="rgba(132.382, 62, 243, 1)" offset="0%"/><stop stop-color="rgba(11, 164.081, 255, 1)" offset="100%"/></linearGradient></defs><path style="transform:translate(0, 0px); opacity:1" fill="url(#sw-gradient-0)" d="M0,215L40,229.3C80,244,160,272,240,293.8C320,315,400,330,480,322.5C560,315,640,287,720,229.3C800,172,880,86,960,64.5C1040,43,1120,86,1200,129C1280,172,1360,215,1440,193.5C1520,172,1600,86,1680,78.8C1760,72,1840,143,1920,164.8C2000,186,2080,158,2160,150.5C2240,143,2320,158,2400,172C2480,186,2560,201,2640,200.7C2720,201,2800,186,2880,172C2960,158,3040,143,3120,157.7C3200,172,3280,215,3360,236.5C3440,258,3520,258,3600,265.2C3680,272,3760,287,3840,258C3920,229,4000,158,4080,172C4160,186,4240,287,4320,279.5C4400,272,4480,158,4560,143.3C4640,129,4720,215,4800,222.2C4880,229,4960,158,5040,150.5C5120,143,5200,201,5280,250.8C5360,301,5440,344,5520,329.7C5600,315,5680,244,5720,207.8L5760,172L5760,430L5720,430C5680,430,5600,430,5520,430C5440,430,5360,430,5280,430C5200,430,5120,430,5040,430C4960,430,4880,430,4800,430C4720,430,4640,430,4560,430C4480,430,4400,430,4320,430C4240,430,4160,430,4080,430C4000,430,3920,430,3840,430C3760,430,3680,430,3600,430C3520,430,3440,430,3360,430C3280,430,3200,430,3120,430C3040,430,2960,430,2880,430C2800,430,2720,430,2640,430C2560,430,2480,430,2400,430C2320,430,2240,430,2160,430C2080,430,2000,430,1920,430C1840,430,1760,430,1680,430C1600,430,1520,430,1440,430C1360,430,1280,430,1200,430C1120,430,1040,430,960,430C880,430,800,430,720,430C640,430,560,430,480,430C400,430,320,430,240,430C160,430,80,430,40,430L0,430Z"/></svg>